<svg width="200" height="60" viewBox="0 0 200 60" fill="none" xmlns="http://www.w3.org/2000/svg">
    <rect width="200" height="60" fill="white"/>
    <!-- Biểu tượng chăm sóc da -->
    <circle cx="40" cy="35" r="20" fill="#FFC0CB" />
    <path d="M30 35C30 28.3726 35.3726 23 42 23C48.6274 23 54 28.3726 54 35C54 41.6274 48.6274 47 42 47C35.3726 47 30 41.6274 30 35Z" fill="white" />
    <path d="M35 25C35 23.8954 35.8954 23 37 23C38.1046 23 39 23.8954 39 25C39 26.1046 38.1046 27 37 27C35.8954 27 35 26.1046 35 25Z" fill="#FF6F61"/>
    <path d="M45 25C45 23.8954 45.8954 23 47 23C48.1046 23 49 23.8954 49 25C49 26.1046 48.1046 27 47 27C45.8954 27 45 26.1046 45 25Z" fill="#FF6F61"/>

    <!-- Tên Spa -->
    <text x="70" y="35" fill="#212529" font-family="Arial, sans-serif" font-size="24" font-weight="bold">
        SpaVuiVe
    </text>

    <!-- Chủ đề -->
    <text x="70" y="52" fill="#999999" font-family="Arial, sans-serif" font-size="14">
        Quality Cosmetics
    </text>
</svg>
